ffmpeg started on 2025-06-28 at 18:19:31
Report written to "D:\Convert\FFMetrics\reports\ssim_report-6.txt"
Log level: 32
Command line:
ffmpeg -hide_banner -nostdin -i "G:\\\xc0\xed\xe8\xec\xe5\\\xce\xed\xe3\xee\xe8\xed\xe3\xe8\\!_37_\xc7\xe8\xec\xe0_2025\\JamClub\\100 \xe4\xe5\xe2\xf3\xf8\xe5\xea, \xea\xee\xf2\xee\xf0\xfb\xe5 \xee\xf7\xe5\xed\xfc-\xee\xf7\xe5\xed\xfc-\xee\xf7\xe5\xed\xfc-\xee\xf7\xe5\xed\xfc-\xee\xf7\xe5\xed\xfc \xf1\xe8\xeb\xfc\xed\xee \xf2\xe5\xe1\xff \xeb\xfe\xe1\xff\xf2\\\xd2\xc2-2\\JamClub_The_100_Girlfriends_Who_Really_Really_Really_Really_REALLY_2_12_HEVC.mkv" -i "G:\\\xc0\xed\xe8\xec\xe5\\\xce\xed\xe3\xee\xe8\xed\xe3\xe8\\!_37_\xc7\xe8\xec\xe0_2025\\JamClub\\100 \xe4\xe5\xe2\xf3\xf8\xe5\xea, \xea\xee\xf2\xee\xf0\xfb\xe5 \xee\xf7\xe5\xed\xfc-\xee\xf7\xe5\xed\xfc-\xee\xf7\xe5\xed\xfc-\xee\xf7\xe5\xed\xfc-\xee\xf7\xe5\xed\xfc \xf1\xe8\xeb\xfc\xed\xee \xf2\xe5\xe1\xff \xeb\xfe\xe1\xff\xf2\\\xd2\xc2-2\\JamClub_The_100_Girlfriends_Who_Really_Really_Really_Really_REALLY_2_12.mp4" -lavfi "[0:v]settb=AVTB,setpts=PTS-STARTPTS,format=pix_fmts=yuv420p10,fps=24000/1001,scale=1920:1080:flags=bicubic[main];[1:v]settb=AVTB,setpts=PTS-STARTPTS,format=pix_fmts=yuv420p,fps=24000/1001,scale=1920:1080:flags=bicubic[ref];[main][ref]ssim=eof_action=endall:stats_file='D\\:/Convert/FFMetrics/logs/ssim_logfile-6.txt'" -f null -
Input #0, matroska,webm, from 'G:\Аниме\Онгоинги\!_37_Зима_2025\JamClub\100 девушек, которые очень-очень-очень-очень-очень сильно тебя любят\ТВ-2\JamClub_The_100_Girlfriends_Who_Really_Really_Really_Really_REALLY_2_12_HEVC.mkv':
  Metadata:
    COMPATIBLE_BRANDS: isomiso2avc1mp41
    MAJOR_BRAND     : isom
    MINOR_VERSION   : 512
    ENCODER         : Lavf61.7.100
  Duration: 00:24:12.27, start: -0.001000, bitrate: 1849 kb/s
  Stream #0:0: Video: hevc (Main 10), yuv420p10le(tv, bt709, progressive), 1920x1080 [SAR 1:1 DAR 16:9], 23.98 fps, 23.98 tbr, 1k tbn (default)
      Metadata:
        HANDLER_NAME    : VideoHandler
        VENDOR_ID       : [0][0][0][0]
        ENCODER         : Lavc61.19.100 libx265
        BPS             : 1652745
        DURATION        : 00:24:12.200708333
        NUMBER_OF_FRAMES: 34818
        NUMBER_OF_BYTES : 300014621
        _STATISTICS_WRITING_APP: mkvpropedit v66.0.0 ('Josie') 64-bit
        _STATISTICS_WRITING_DATE_UTC: 2025-06-28 14:44:37
        _STATISTICS_TAGS: BPS DURATION NUMBER_OF_FRAMES NUMBER_OF_BYTES
  Stream #0:1(eng): Audio: aac (LC), 48000 Hz, stereo, fltp (default)
      Metadata:
        HANDLER_NAME    : SoundHandler
        VENDOR_ID       : [0][0][0][0]
        ENCODER         : Lavc61.19.100 aac
        BPS             : 193015
        DURATION        : 00:24:12.227000000
        NUMBER_OF_FRAMES: 68074
        NUMBER_OF_BYTES : 35037863
        _STATISTICS_WRITING_APP: mkvpropedit v66.0.0 ('Josie') 64-bit
        _STATISTICS_WRITING_DATE_UTC: 2025-06-28 14:44:37
        _STATISTICS_TAGS: BPS DURATION NUMBER_OF_FRAMES NUMBER_OF_BYTES
Input #1, mov,mp4,m4a,3gp,3g2,mj2, from 'G:\Аниме\Онгоинги\!_37_Зима_2025\JamClub\100 девушек, которые очень-очень-очень-очень-очень сильно тебя любят\ТВ-2\JamClub_The_100_Girlfriends_Who_Really_Really_Really_Really_REALLY_2_12.mp4':
  Metadata:
    major_brand     : isom
    minor_version   : 512
    compatible_brands: isomiso2avc1mp41
    encoder         : Lavf60.16.100
  Duration: 00:24:12.25, start: 0.000000, bitrate: 5123 kb/s
  Stream #1:0[0x1](und): Video: h264 (High) (avc1 / 0x31637661), yuv420p(progressive), 1920x1080 [SAR 1:1 DAR 16:9], 4925 kb/s, 23.98 fps, 23.98 tbr, 90k tbn (default)
      Metadata:
        handler_name    : VideoHandler
        vendor_id       : [0][0][0][0]
  Stream #1:1[0x2](eng): Audio: aac (LC) (mp4a / 0x6134706D), 48000 Hz, stereo, fltp, 191 kb/s (default)
      Metadata:
        handler_name    : SoundHandler
        vendor_id       : [0][0][0][0]
Stream mapping:
  Stream #0:0 (hevc) -> settb:default
  Stream #1:0 (h264) -> settb:default
  ssim:default -> Stream #0:0 (wrapped_avframe)
  Stream #0:1 -> #0:1 (aac (native) -> pcm_s16le (native))
Output #0, null, to 'pipe:':
  Metadata:
    COMPATIBLE_BRANDS: isomiso2avc1mp41
    MAJOR_BRAND     : isom
    MINOR_VERSION   : 512
    encoder         : Lavf61.7.100
  Stream #0:0: Video: wrapped_avframe, yuv420p10le(tv, bt709, progressive), 1920x1080 [SAR 1:1 DAR 16:9], q=2-31, 200 kb/s, 23.98 fps, 23.98 tbn
      Metadata:
        encoder         : Lavc61.19.100 wrapped_avframe
  Stream #0:1(eng): Audio: pcm_s16le, 48000 Hz, stereo, s16, 1536 kb/s (default)
      Metadata:
        HANDLER_NAME    : SoundHandler
        VENDOR_ID       : [0][0][0][0]
        _STATISTICS_TAGS: BPS DURATION NUMBER_OF_FRAMES NUMBER_OF_BYTES
        BPS             : 193015
        DURATION        : 00:24:12.227000000
        NUMBER_OF_FRAMES: 68074
        NUMBER_OF_BYTES : 35037863
        _STATISTICS_WRITING_APP: mkvpropedit v66.0.0 ('Josie') 64-bit
        _STATISTICS_WRITING_DATE_UTC: 2025-06-28 14:44:37
        encoder         : Lavc61.19.100 pcm_s16le
frame=  115 fps=0.0 q=-0.0 size=N/A time=00:00:04.79 bitrate=N/A speed=9.16x    frame=  279 fps=269 q=-0.0 size=N/A time=00:00:11.63 bitrate=N/A speed=11.2x    frame=  476 fps=308 q=-0.0 size=N/A time=00:00:19.85 bitrate=N/A speed=12.8x    frame=  651 fps=315 q=-0.0 size=N/A time=00:00:27.15 bitrate=N/A speed=13.1x    frame=  891 fps=345 q=-0.0 size=N/A time=00:00:37.16 bitrate=N/A speed=14.4x    frame= 1104 fps=357 q=-0.0 size=N/A time=00:00:46.04 bitrate=N/A speed=14.9x    frame= 1346 fps=372 q=-0.0 size=N/A time=00:00:56.13 bitrate=N/A speed=15.5x    frame= 1586 fps=384 q=-0.0 size=N/A time=00:01:06.14 bitrate=N/A speed=  16x    frame= 1835 fps=396 q=-0.0 size=N/A time=00:01:16.53 bitrate=N/A speed=16.5x    frame= 2042 fps=396 q=-0.0 size=N/A time=00:01:25.16 bitrate=N/A speed=16.5x    frame= 2241 fps=395 q=-0.0 size=N/A time=00:01:33.46 bitrate=N/A speed=16.5x    frame= 2442 fps=395 q=-0.0 size=N/A time=00:01:41.85 bitrate=N/A speed=16.5x    frame= 2665 fps=397 q=-0.0 size=N/A time=00:01:51.15 bitrate=N/A speed=16.6x    frame= 2882 fps=399 q=-0.0 size=N/A time=00:02:00.20 bitrate=N/A speed=16.7x    frame= 3096 fps=400 q=-0.0 size=N/A time=00:02:09.12 bitrate=N/A speed=16.7x    frame= 3260 fps=395 q=-0.0 size=N/A time=00:02:15.96 bitrate=N/A speed=16.5x    frame= 3434 fps=392 q=-0.0 size=N/A time=00:02:23.22 bitrate=N/A speed=16.3x    frame= 3615 fps=389 q=-0.0 size=N/A time=00:02:30.77 bitrate=N/A speed=16.2x    frame= 3822 fps=390 q=-0.0 size=N/A time=00:02:39.40 bitrate=N/A speed=16.3x    frame= 4084 fps=396 q=-0.0 size=N/A time=00:02:50.33 bitrate=N/A speed=16.5x    frame= 4342 fps=401 q=-0.0 size=N/A time=00:03:01.09 bitrate=N/A speed=16.7x    frame= 4566 fps=402 q=-0.0 size=N/A time=00:03:10.44 bitrate=N/A speed=16.8x    frame= 4831 fps=407 q=-0.0 size=N/A time=00:03:21.49 bitrate=N/A speed=  17x    frame= 5064 fps=409 q=-0.0 size=N/A time=00:03:31.21 bitrate=N/A speed=17.1x    frame= 5281 fps=410 q=-0.0 size=N/A time=00:03:40.26 bitrate=N/A speed=17.1x    frame= 5489 fps=410 q=-0.0 size=N/A time=00:03:48.93 bitrate=N/A speed=17.1x    frame= 5730 fps=411 q=-0.0 size=N/A time=00:03:58.98 bitrate=N/A speed=17.2x    frame= 5964 fps=413 q=-0.0 size=N/A time=00:04:08.74 bitrate=N/A speed=17.2x    frame= 6199 fps=414 q=-0.0 size=N/A time=00:04:18.54 bitrate=N/A speed=17.3x    frame= 6429 fps=416 q=-0.0 size=N/A time=00:04:28.14 bitrate=N/A speed=17.3x    frame= 6586 fps=412 q=-0.0 size=N/A time=00:04:34.69 bitrate=N/A speed=17.2x    frame= 6812 fps=413 q=-0.0 size=N/A time=00:04:44.11 bitrate=N/A speed=17.2x    frame= 7058 fps=415 q=-0.0 size=N/A time=00:04:54.37 bitrate=N/A speed=17.3x    frame= 7283 fps=415 q=-0.0 size=N/A time=00:05:03.76 bitrate=N/A speed=17.3x    frame= 7537 fps=417 q=-0.0 size=N/A time=00:05:14.35 bitrate=N/A speed=17.4x    frame= 7761 fps=418 q=-0.0 size=N/A time=00:05:23.69 bitrate=N/A speed=17.4x    frame= 7994 fps=419 q=-0.0 size=N/A time=00:05:33.41 bitrate=N/A speed=17.5x    frame= 8241 fps=420 q=-0.0 size=N/A time=00:05:43.71 bitrate=N/A speed=17.5x    frame= 8446 fps=420 q=-0.0 size=N/A time=00:05:52.26 bitrate=N/A speed=17.5x    frame= 8677 fps=421 q=-0.0 size=N/A time=00:06:01.90 bitrate=N/A speed=17.5x    frame= 8869 fps=419 q=-0.0 size=N/A time=00:06:09.91 bitrate=N/A speed=17.5x    frame= 9092 fps=420 q=-0.0 size=N/A time=00:06:19.21 bitrate=N/A speed=17.5x    frame= 9325 fps=420 q=-0.0 size=N/A time=00:06:28.93 bitrate=N/A speed=17.5x    frame= 9538 fps=420 q=-0.0 size=N/A time=00:06:37.81 bitrate=N/A speed=17.5x    frame= 9733 fps=420 q=-0.0 size=N/A time=00:06:45.94 bitrate=N/A speed=17.5x    frame= 9943 fps=419 q=-0.0 size=N/A time=00:06:54.70 bitrate=N/A speed=17.5x    frame=10148 fps=419 q=-0.0 size=N/A time=00:07:03.25 bitrate=N/A speed=17.5x    frame=10355 fps=418 q=-0.0 size=N/A time=00:07:11.88 bitrate=N/A speed=17.5x    frame=10585 fps=419 q=-0.0 size=N/A time=00:07:21.48 bitrate=N/A speed=17.5x    frame=10793 fps=419 q=-0.0 size=N/A time=00:07:30.15 bitrate=N/A speed=17.5x    frame=10992 fps=418 q=-0.0 size=N/A time=00:07:38.45 bitrate=N/A speed=17.4x    frame=11228 fps=419 q=-0.0 size=N/A time=00:07:48.30 bitrate=N/A speed=17.5x    frame=11452 fps=419 q=-0.0 size=N/A time=00:07:57.64 bitrate=N/A speed=17.5x    frame=11659 fps=419 q=-0.0 size=N/A time=00:08:06.27 bitrate=N/A speed=17.5x    frame=11851 fps=418 q=-0.0 size=N/A time=00:08:14.28 bitrate=N/A speed=17.4x    frame=12034 fps=417 q=-0.0 size=N/A time=00:08:21.91 bitrate=N/A speed=17.4x    frame=12280 fps=418 q=-0.0 size=N/A time=00:08:32.17 bitrate=N/A speed=17.4x    frame=12519 fps=419 q=-0.0 size=N/A time=00:08:42.14 bitrate=N/A speed=17.5x    frame=12770 fps=420 q=-0.0 size=N/A time=00:08:52.61 bitrate=N/A speed=17.5x    frame=12974 fps=419 q=-0.0 size=N/A time=00:09:01.12 bitrate=N/A speed=17.5x    frame=13191 fps=419 q=-0.0 size=N/A time=00:09:10.17 bitrate=N/A speed=17.5x    frame=13401 fps=419 q=-0.0 size=N/A time=00:09:18.93 bitrate=N/A speed=17.5x    frame=13592 fps=418 q=-0.0 size=N/A time=00:09:26.89 bitrate=N/A speed=17.4x    frame=13803 fps=418 q=-0.0 size=N/A time=00:09:35.70 bitrate=N/A speed=17.4x    frame=14038 fps=419 q=-0.0 size=N/A time=00:09:45.50 bitrate=N/A speed=17.5x    frame=14269 fps=419 q=-0.0 size=N/A time=00:09:55.13 bitrate=N/A speed=17.5x    frame=14506 fps=420 q=-0.0 size=N/A time=00:10:05.02 bitrate=N/A speed=17.5x    frame=14748 fps=421 q=-0.0 size=N/A time=00:10:15.11 bitrate=N/A speed=17.5x    frame=14990 fps=421 q=-0.0 size=N/A time=00:10:25.20 bitrate=N/A speed=17.6x    frame=15176 fps=420 q=-0.0 size=N/A time=00:10:32.96 bitrate=N/A speed=17.5x    frame=15412 fps=421 q=-0.0 size=N/A time=00:10:42.80 bitrate=N/A speed=17.6x    frame=15644 fps=421 q=-0.0 size=N/A time=00:10:52.48 bitrate=N/A speed=17.6x    frame=15855 fps=421 q=-0.0 size=N/A time=00:11:01.28 bitrate=N/A speed=17.6x    frame=16056 fps=421 q=-0.0 size=N/A time=00:11:09.66 bitrate=N/A speed=17.6x    frame=16303 fps=422 q=-0.0 size=N/A time=00:11:19.97 bitrate=N/A speed=17.6x    frame=16532 fps=422 q=-0.0 size=N/A time=00:11:29.52 bitrate=N/A speed=17.6x    frame=16782 fps=423 q=-0.0 size=N/A time=00:11:39.94 bitrate=N/A speed=17.6x    frame=17012 fps=423 q=-0.0 size=N/A time=00:11:49.54 bitrate=N/A speed=17.6x    frame=17265 fps=424 q=-0.0 size=N/A time=00:12:00.09 bitrate=N/A speed=17.7x    frame=17533 fps=425 q=-0.0 size=N/A time=00:12:11.27 bitrate=N/A speed=17.7x    frame=17806 fps=426 q=-0.0 size=N/A time=00:12:22.65 bitrate=N/A speed=17.8x    frame=18066 fps=427 q=-0.0 size=N/A time=00:12:33.50 bitrate=N/A speed=17.8x    frame=18305 fps=428 q=-0.0 size=N/A time=00:12:43.47 bitrate=N/A speed=17.8x    frame=18555 fps=428 q=-0.0 size=N/A time=00:12:53.89 bitrate=N/A speed=17.9x    frame=18817 fps=429 q=-0.0 size=N/A time=00:13:04.82 bitrate=N/A speed=17.9x    frame=19078 fps=430 q=-0.0 size=N/A time=00:13:15.71 bitrate=N/A speed=17.9x    frame=19350 fps=431 q=-0.0 size=N/A time=00:13:27.05 bitrate=N/A speed=  18x    frame=19597 fps=432 q=-0.0 size=N/A time=00:13:37.35 bitrate=N/A speed=  18x    frame=19827 fps=432 q=-0.0 size=N/A time=00:13:46.95 bitrate=N/A speed=  18x    frame=20086 fps=433 q=-0.0 size=N/A time=00:13:57.75 bitrate=N/A speed=  18x    frame=20339 fps=433 q=-0.0 size=N/A time=00:14:08.30 bitrate=N/A speed=18.1x    frame=20591 fps=434 q=-0.0 size=N/A time=00:14:18.81 bitrate=N/A speed=18.1x    frame=20825 fps=434 q=-0.0 size=N/A time=00:14:28.57 bitrate=N/A speed=18.1x    frame=21083 fps=435 q=-0.0 size=N/A time=00:14:39.33 bitrate=N/A speed=18.1x    frame=21315 fps=435 q=-0.0 size=N/A time=00:14:49.01 bitrate=N/A speed=18.1x    frame=21565 fps=435 q=-0.0 size=N/A time=00:14:59.44 bitrate=N/A speed=18.2x    frame=21829 fps=436 q=-0.0 size=N/A time=00:15:10.45 bitrate=N/A speed=18.2x    frame=22086 fps=437 q=-0.0 size=N/A time=00:15:21.17 bitrate=N/A speed=18.2x    frame=22344 fps=437 q=-0.0 size=N/A time=00:15:31.93 bitrate=N/A speed=18.2x    frame=22519 fps=436 q=-0.0 size=N/A time=00:15:39.22 bitrate=N/A speed=18.2x    frame=22747 fps=436 q=-0.0 size=N/A time=00:15:48.73 bitrate=N/A speed=18.2x    frame=22998 fps=437 q=-0.0 size=N/A time=00:15:59.20 bitrate=N/A speed=18.2x    frame=23270 fps=438 q=-0.0 size=N/A time=00:16:10.55 bitrate=N/A speed=18.3x    frame=23490 fps=438 q=-0.0 size=N/A time=00:16:19.72 bitrate=N/A speed=18.3x    frame=23748 fps=438 q=-0.0 size=N/A time=00:16:30.48 bitrate=N/A speed=18.3x    frame=23986 fps=438 q=-0.0 size=N/A time=00:16:40.41 bitrate=N/A speed=18.3x    frame=24235 fps=439 q=-0.0 size=N/A time=00:16:50.84 bitrate=N/A speed=18.3x    frame=24480 fps=439 q=-0.0 size=N/A time=00:17:01.02 bitrate=N/A speed=18.3x    frame=24721 fps=439 q=-0.0 size=N/A time=00:17:11.07 bitrate=N/A speed=18.3x    frame=24917 fps=439 q=-0.0 size=N/A time=00:17:19.24 bitrate=N/A speed=18.3x    frame=25164 fps=439 q=-0.0 size=N/A time=00:17:29.54 bitrate=N/A speed=18.3x    frame=25378 fps=439 q=-0.0 size=N/A time=00:17:38.47 bitrate=N/A speed=18.3x    frame=25628 fps=440 q=-0.0 size=N/A time=00:17:48.90 bitrate=N/A speed=18.3x    frame=25869 fps=440 q=-0.0 size=N/A time=00:17:58.95 bitrate=N/A speed=18.3x    frame=26108 fps=440 q=-0.0 size=N/A time=00:18:08.92 bitrate=N/A speed=18.3x    frame=26355 fps=440 q=-0.0 size=N/A time=00:18:19.22 bitrate=N/A speed=18.4x    frame=26634 fps=441 q=-0.0 size=N/A time=00:18:30.85 bitrate=N/A speed=18.4x    frame=26887 fps=442 q=-0.0 size=N/A time=00:18:41.41 bitrate=N/A speed=18.4x    frame=27120 fps=442 q=-0.0 size=N/A time=00:18:51.13 bitrate=N/A speed=18.4x    frame=27367 fps=442 q=-0.0 size=N/A time=00:19:01.43 bitrate=N/A speed=18.4x    frame=27584 fps=442 q=-0.0 size=N/A time=00:19:10.48 bitrate=N/A speed=18.4x    frame=27824 fps=442 q=-0.0 size=N/A time=00:19:20.49 bitrate=N/A speed=18.4x    frame=28049 fps=442 q=-0.0 size=N/A time=00:19:29.87 bitrate=N/A speed=18.4x    frame=28295 fps=442 q=-0.0 size=N/A time=00:19:40.13 bitrate=N/A speed=18.4x    frame=28540 fps=442 q=-0.0 size=N/A time=00:19:50.35 bitrate=N/A speed=18.5x    frame=28826 fps=443 q=-0.0 size=N/A time=00:20:02.28 bitrate=N/A speed=18.5x    frame=29068 fps=444 q=-0.0 size=N/A time=00:20:12.37 bitrate=N/A speed=18.5x    frame=29334 fps=444 q=-0.0 size=N/A time=00:20:23.47 bitrate=N/A speed=18.5x    frame=29576 fps=444 q=-0.0 size=N/A time=00:20:33.56 bitrate=N/A speed=18.5x    frame=29800 fps=444 q=-0.0 size=N/A time=00:20:42.90 bitrate=N/A speed=18.5x    frame=30042 fps=444 q=-0.0 size=N/A time=00:20:53.00 bitrate=N/A speed=18.5x    frame=30312 fps=445 q=-0.0 size=N/A time=00:21:04.26 bitrate=N/A speed=18.6x    frame=30555 fps=445 q=-0.0 size=N/A time=00:21:14.39 bitrate=N/A speed=18.6x    frame=30799 fps=445 q=-0.0 size=N/A time=00:21:24.57 bitrate=N/A speed=18.6x    frame=31042 fps=446 q=-0.0 size=N/A time=00:21:34.71 bitrate=N/A speed=18.6x    frame=31310 fps=446 q=-0.0 size=N/A time=00:21:45.88 bitrate=N/A speed=18.6x    frame=31527 fps=446 q=-0.0 size=N/A time=00:21:54.93 bitrate=N/A speed=18.6x    frame=31801 fps=447 q=-0.0 size=N/A time=00:22:06.36 bitrate=N/A speed=18.6x    frame=32013 fps=446 q=-0.0 size=N/A time=00:22:15.20 bitrate=N/A speed=18.6x    frame=32222 fps=446 q=-0.0 size=N/A time=00:22:23.92 bitrate=N/A speed=18.6x    frame=32447 fps=446 q=-0.0 size=N/A time=00:22:33.31 bitrate=N/A speed=18.6x    frame=32675 fps=446 q=-0.0 size=N/A time=00:22:42.81 bitrate=N/A speed=18.6x    frame=32917 fps=446 q=-0.0 size=N/A time=00:22:52.91 bitrate=N/A speed=18.6x    frame=33058 fps=445 q=-0.0 size=N/A time=00:22:58.79 bitrate=N/A speed=18.6x    frame=33174 fps=443 q=-0.0 size=N/A time=00:23:03.63 bitrate=N/A speed=18.5x    frame=33281 fps=442 q=-0.0 size=N/A time=00:23:08.09 bitrate=N/A speed=18.4x    frame=33385 fps=440 q=-0.0 size=N/A time=00:23:12.43 bitrate=N/A speed=18.4x    frame=33493 fps=438 q=-0.0 size=N/A time=00:23:16.93 bitrate=N/A speed=18.3x    frame=33596 fps=437 q=-0.0 size=N/A time=00:23:21.23 bitrate=N/A speed=18.2x    frame=33709 fps=435 q=-0.0 size=N/A time=00:23:25.94 bitrate=N/A speed=18.2x    frame=33812 fps=434 q=-0.0 size=N/A time=00:23:30.24 bitrate=N/A speed=18.1x    frame=33915 fps=432 q=-0.0 size=N/A time=00:23:34.53 bitrate=N/A speed=  18x    frame=34023 fps=431 q=-0.0 size=N/A time=00:23:39.04 bitrate=N/A speed=  18x    frame=34127 fps=429 q=-0.0 size=N/A time=00:23:43.38 bitrate=N/A speed=17.9x    frame=34248 fps=428 q=-0.0 size=N/A time=00:23:48.42 bitrate=N/A speed=17.9x    frame=34444 fps=428 q=-0.0 size=N/A time=00:23:56.60 bitrate=N/A speed=17.8x    frame=34624 fps=427 q=-0.0 size=N/A time=00:24:04.10 bitrate=N/A speed=17.8x    [Parsed_ssim_10 @ 000001bafec058c0] SSIM Y:0.995677 (23.642409) U:0.993742 (22.035559) V:0.993668 (21.984809) All:0.995020 (23.027596)
[out#0/null @ 000001bafe2a1100] video:14961KiB audio:272296KiB subtitle:0KiB other streams:0KiB global headers:0KiB muxing overhead: unknown
frame=34818 fps=427 q=-0.0 Lsize=N/A time=00:24:12.20 bitrate=N/A speed=17.8x    
